 http://www.imdb.com/title/tt0118799/


Filmul este o fabula, in stil chaplinian, despre puterea imaginatiei de a se impotrivi crudelor realitati din Europa in timpul celui de-al II-lea razboi mondial.

In centrul povestii se afla Guido (Roberto Benigni) - un personaj incantator, caracterizat printr-o inocenta copilareasca si nutrind un mare vis: acela de a deschide o librarie proprie. Este anul 1939; Guido a venit in Arezzo, un orasel din Toscana, impreuna cu prietenul sau, poetul Feruccio (Sergio Bustric), ignorand antisemitismul manifestat, cu din ce in ce mai multa violenta, de catre guvernul fascist.

Guido se indragosteste de Dora, o tanara si frumoasa profesoara (Nicoletta Braschi, actrita preferata a lui Benigni). Din pacate, Dora, pe care el o numeste "Printesa", este logodita cu un oficial fascist din localitate. Dar Guido nu se lasa impresionat si, in felul sau amuzant, reuseste sa o cucereasca pe aleasa inimii lui si sa o determine sa il urmeze.

Dupa sapte ani, ii gasim pe Guido si Dora casatoriti si cu un fiu, Giosue (Giorgio Cantarini). In sfarsit, Guido a reusit sa-si deschida libraria mult visata. Din pacate, antisemitismul a atins in Italia cote maxime si, intr-o zi, Guido si fiul sau sunt ridicati de catre fortele de ordine si internati intr-un lagar de concentrare. Pentru a ramane alaturi de cei dragi, Dora cere sa mearga si ea in lagar.

De acum incolo, unicul scop al lui Guido este sa-si salveze fiul si, mai ales, sa salveze inocenta acestuia,deorece nu wrea sa ajunga precum este el.
Premii :
Oscar - rol principal masculin - Roberto Benigni
Oscar - cel mai bun film strain
Oscar - coloana sonora - Nicola Piovani
Nominalizare Oscar - regizor - Roberto Benigni
Nominalizare Oscar - montaj - Simona Paggi
Nominalizare Oscar - cel mai bun film - Gianluigi Braschi, Elda Ferri
Nominalizare Oscar - scenariu - Vincenzo Cerami, Roberto Benigni




   General
      Format : Matroska
      File size : 7.64 GiB
      Duration : 1h 56mn
      Overall bit rate : 9 414 Kbps
      Encoded date : UTC 2012-06-04 11:59:38
      Writing application : mkvmerge v3.3.0 ('Language') built on Mar 24 2010 14:59:24
      Writing library : libebml v0.8.0 + libmatroska v0.9.0
   Video #1
      ID : 1
      Format : AVC
      Format/Info : Advanced Video Codec
      Format profile : High@L4.1
      Format settings, CABAC : Yes
      Format settings, ReFrames : 4 frames
      Codec ID : V_MPEG4/ISO/AVC
      Duration : 1h 56mn
      Bit rate mode : Variable
      Bit rate : 8 131 Kbps
      Maximum bit rate : 40.0 Mbps
      Width : 1 920 pixels
      Height : 1 040 pixels
      Display aspect ratio : 16:9
      Frame rate : 23.976 fps
      Color space : YUV
      Chroma subsampling : 4:2:0
      Bit depth : 8 bits
      Scan type : Progressive
      Bits/(Pixel*Frame) : 0.170
      Stream size : 6.45 GiB (84%)
      Writing library : x264 core 107 r1745+311 2317302
   Audio #2
      ID : 2
      Format : AC-3
      Format/Info : Audio Coding 3
      Mode extension : CM (complete main)
      Codec ID : A_AC3
      Duration : 1h 56mn
      Bit rate mode : Constant
      Bit rate : 640 Kbps
      Channel(s) : 6 channels
      Channel positions : Front: L C R, Side: L R, LFE
      Sampling rate : 48.0 KHz
      Bit depth : 16 bits
      Compression mode : Lossy
      Stream size : 532 MiB (7%)
   Audio #3
      ID : 3
      Format : AC-3
      Format/Info : Audio Coding 3
      Mode extension : CM (complete main)
      Codec ID : A_AC3
      Duration : 1h 56mn
      Bit rate mode : Constant
      Bit rate : 640 Kbps
      Channel(s) : 6 channels
      Channel positions : Front: L C R, Side: L R, LFE
      Sampling rate : 48.0 KHz
      Bit depth : 16 bits
      Compression mode : Lossy
      Stream size : 532 MiB (7%)
   Text #4
      ID : 4
      Format : UTF-8
      Codec ID : S_TEXT/UTF8
      Codec ID/Info : UTF-8 Plain Text
      Title : GERULA
      Language : Romanian

